
<?xml version="1.0" encoding="iso-8859-1"?>
<!-- Generator: Adobe Illustrator 19.0.0, SVG Export Plug-In . SVG Version: 6.00 Build 0)  -->
<svg xmlns="http://www.w3.org/2000/svg" xmlns:xlink="http://www.w3.org/1999/xlink" version="1.1" id="Layer_1" x="0px" y="0px" viewBox="0 0 512 512" style="enable-background:new 0 0 512 512;" xml:space="preserve" width="512" height="512">
<g>
	<path d="M467,56c-24.813,0-45,20.187-45,45v114.58c-15.832-5.57-34.181-2.038-46.819,10.601L262.925,338.435   c-2.515,2.516-4.82,5.188-6.925,7.982c-2.106-2.795-4.41-5.466-6.927-7.983L136.82,226.181   C124.181,213.542,105.833,210.01,90,215.58V101c0-24.813-20.187-45-45-45S0,76.187,0,101v192.203l90,148V512h332v-70.797l90-148   V101C512,76.187,491.813,56,467,56z M30,284.797V101c0-8.271,6.729-15,15-15s15,6.729,15,15v157.5   c0.158,11.356,4.535,22.674,13.18,31.319l112.209,112.21l21.213-21.213L94.394,268.606c-5.848-5.849-5.848-15.364,0-21.213   c5.849-5.848,15.365-5.848,21.214,0l112.252,112.252C236.333,368.122,241,379.435,241,391.5V482H120v-49.203L30,284.797z    M482,284.797l-90,148V482H271v-90.5c0-12.065,4.667-23.378,13.14-31.854l112.254-112.253c2.833-2.833,6.6-4.394,10.606-4.394   s7.773,1.561,10.606,4.394S422,253.993,422,258s-1.561,7.773-4.394,10.606L305.393,380.821l21.213,21.213l112.214-112.215   c8.382-8.381,13.04-19.487,13.168-31.319C452,258.5,452,101,452,101c0-8.271,6.729-15,15-15s15,6.729,15,15V284.797z"/>
	<path d="M196,250h120v-65h65V65h-65V0H196v65h-65v120h65V250z M161,155V95h65V30h60v65h65v60h-65v65h-60v-65H161z"/>
</g>
</svg>
